<svg xmlns="http://www.w3.org/2000/svg" viewBox="0 0 256 256" role="img" aria-label="Flix-Catalogs icon">
  <defs>
    <linearGradient id="bg" x1="0" y1="0" x2="1" y2="1">
      <stop offset="0%" stop-color="#071126"/>
      <stop offset="100%" stop-color="#152a52"/>
    </linearGradient>
    <linearGradient id="accent" x1="0" y1="0" x2="1" y2="1">
      <stop offset="0%" stop-color="#00d1ff"/>
      <stop offset="100%" stop-color="#4f7bff"/>
    </linearGradient>
  </defs>

  <rect x="10" y="10" width="236" height="236" rx="52" fill="url(#bg)"/>
  <rect x="30" y="30" width="196" height="196" rx="40" fill="#0a1833" opacity="0.8"/>

  <g opacity="0.35" fill="#9ab6ff">
    <rect x="44" y="52" width="16" height="12" rx="3"/>
    <rect x="44" y="80" width="16" height="12" rx="3"/>
    <rect x="44" y="108" width="16" height="12" rx="3"/>
    <rect x="44" y="136" width="16" height="12" rx="3"/>
    <rect x="44" y="164" width="16" height="12" rx="3"/>
    <rect x="44" y="192" width="16" height="12" rx="3"/>
    <rect x="196" y="52" width="16" height="12" rx="3"/>
    <rect x="196" y="80" width="16" height="12" rx="3"/>
    <rect x="196" y="108" width="16" height="12" rx="3"/>
    <rect x="196" y="136" width="16" height="12" rx="3"/>
    <rect x="196" y="164" width="16" height="12" rx="3"/>
    <rect x="196" y="192" width="16" height="12" rx="3"/>
  </g>

  <path d="M86 66h84v24h-56v26h50v23h-50v51h-28z" fill="url(#accent)"/>
  <rect x="160" y="66" width="10" height="124" fill="#f7fbff" opacity="0.92"/>

  <circle cx="197" cy="59" r="6" fill="#00d1ff" opacity="0.95"/>
</svg>
